# xmcd
#
# Track frame offsets: 
#        182
#        18517
#        36812
#        63572
#
# Disc length: 1102 seconds
#
# Revision: 13
# Processed by: cddbd v1.5.2PL0 Copyright (c) Steve Scherf et al.
# Submitted via: ExactAudioCopy v1.0b3
#
DISCID=2e044c04
DTITLE=Rednex - The Spirit Of The Hawk
DYEAR=2000
DGENRE=Pop
TTITLE0=The Spirit Of The Hawk (F.A.F.Radio Mix)
TTITLE1=The Spirit Of The Hawk (Instrumental)
TTITLE2=The Spirit Of The Hawk (F.A.F.'s ''Heap Bigg'' Remix)
TTITLE3=Ranger Jack
EXTD=
EXTT0=
EXTT1=
EXTT2=
EXTT3=
PLAYORDER=
